<svg xmlns="http://www.w3.org/2000/svg"><defs><font horiz-adv-x="512"><font-face units-per-em="512" ascent="480" descent="-32"/><glyph horiz-adv-x="256"/><glyph unicode="" d="M512 184.778L256 383.49 0 184.778v81.02l256 198.712 256-198.715zM448 192V0H320v128H192V0H64v192l192 144z"/><glyph unicode="" d="M288.117 335.365l121.356 40.716L511.265 72.69 389.91 31.972zM0 32h128v352H0V32zm32 288h64v-32H32v32zM160 32h128v352H160V32zm32 288h64v-32h-64v32z"/><glyph unicode="" d="M352 480H32V-32h448v384L352 480zM448 0H64v448h288v-96h96V0z"/><glyph unicode="" d="M448 96v64h-64V96h-64V32h64v-64h64v64h64v64zM32 448h288v-96h96V192h32v160L320 480H0V-32h288V0H32z"/><glyph unicode="" d="M320 96h192V32H320zM32 448h288v-96h96V192h32v160L320 480H0V-32h288V0H32z"/><glyph unicode="" d="M352-32L256 80l40.75 40.75L352 65.125 480 192l32-32zM32 448h288v-96h96V192h32v160L320 480H0V-32h288V0H32v448z"/><glyph unicode="" d="M32 448h288v-96h96V192h32v160L320 480H0V-32h288V0H32v448zM461.256 64L512 114.744V160h-45.256L416 109.256 365.256 160H320v-45.256L370.744 64 320 13.256V-32h45.256L416 18.744 466.744-32H512v45.256z"/><glyph unicode="" d="M480 352H32l32 64h176l16-32h208zM0 320L32 0h448l32 320H0zm352-192h-64V64h-64v64h-64v64h64v64h64v-64h64v-64z"/><glyph unicode="" d="M480 352H32l32 64h176l16-32h208zM0 320L32 0h448l32 320H0zm352-192H160v64h192v-64z"/><glyph unicode="" d="M492.25 352H19.75C6.55 352-2.132 341.41.457 328.466L59.293 55.534C61.883 42.59 74.8 32 88 32h336c13.2 0 26.118 10.59 28.707 23.534l58.836 272.932C514.133 341.41 505.45 352 492.25 352zM448 392c0 13.255-10.745 24-24 24H208l-16 32H88c-13.255 0-24-10.745-24-24v-56h384v24z"/><glyph unicode="" d="M492.25 288c13.2 0 21.882-10.59 19.293-23.534L452.707 55.534C450.117 42.59 437.2 32 424 32H88c-13.2 0-26.118 10.59-28.707 23.534L.457 264.466C-2.133 277.41 6.55 288 19.75 288h472.5zM448 392v-72H64v104c0 13.255 10.745 24 24 24h104l16-32h216c13.255 0 24-10.745 24-24z"/><glyph unicode="" d="M488.79 382.77c16.994-4.856 26.834-22.568 21.98-39.56l-64-224C442.843 105.47 430.286 96 416 96H144c-16.138 0-29.75 12.018-31.753 28.03L83.75 352H32c-17.673 0-32 14.327-32 32s14.327 32 32 32h80c16.138 0 29.75-12.017 31.753-28.03L172.25 160H391.86l57.37 200.79c4.854 16.994 22.567 26.833 39.56 21.98zM128 16c0 26.51 21.49 48 48 48s48-21.49 48-48-21.49-48-48-48-48 21.49-48 48zm192 0c0 26.51 21.49 48 48 48s48-21.49 48-48-21.49-48-48-48-48 21.49-48 48z"/><glyph unicode="" d="M416 96H144c-16.138 0-29.75 12.018-31.753 28.03L83.75 352H32c-17.673 0-32 14.327-32 32s14.327 32 32 32h80c16.138 0 29.75-12.017 31.753-28.03L172.25 160H391.86l57.37 200.79c4.853 16.994 22.566 26.833 39.56 21.98 16.992-4.856 26.832-22.568 21.977-39.56l-64-224C442.843 105.47 430.286 96 416 96zM128 16c0 26.51 21.49 48 48 48s48-21.49 48-48-21.49-48-48-48-48 21.49-48 48zm192 0c0 26.51 21.49 48 48 48s48-21.49 48-48-21.49-48-48-48-48 21.49-48 48zm64 240h-64v-64h-64v64h-64v64h64v64h64v-64h64z"/><glyph unicode="" d="M488.79 382.77c16.994-4.856 26.834-22.568 21.98-39.56l-64-224C442.843 105.47 430.286 96 416 96H144c-16.138 0-29.75 12.018-31.753 28.03L83.75 352H32c-17.673 0-32 14.327-32 32s14.327 32 32 32h80c16.138 0 29.75-12.017 31.753-28.03L172.25 160H391.86l57.37 200.79c4.854 16.994 22.567 26.833 39.56 21.98zM128 16c0 26.51 21.49 48 48 48s48-21.49 48-48-21.49-48-48-48-48 21.49-48 48zm192 0c0 26.51 21.49 48 48 48s48-21.49 48-48-21.49-48-48-48-48 21.49-48 48zM182 320h74v96h64v-96h74L288 206z"/><glyph unicode="" d="M240 448C107.452 448 0 340.548 0 208S107.452-32 240-32c132.55 0 240 107.45 240 240S372.55 448 240 448zm0-432C133.96 16 48 101.96 48 208s85.96 192 192 192 192-85.96 192-192S346.04 16 240 16zm16 208v64h64v32h-64v32h-32v-32h-64V192h64v-64h-64V96h64V64h32v32h64v128h-64zm-32 0h-32v64h32v-64zm64-96h-32v64h32v-64z"/><glyph unicode="" d="M335.333 321.333c-11.648 0-23.03-1.14-34.05-3.292-.872.66-1.762 1.315-2.693 1.96 13.614 9.413 21.41 20.34 21.41 32v32c0 35.346-71.634 64-160 64S0 419.346 0 384v-32c0-11.658 7.796-22.586 21.41-32C7.796 310.586 0 299.658 0 288v-32c0-11.658 7.796-22.586 21.41-32C7.797 214.586 0 203.657 0 192v-32c0-11.658 7.796-22.586 21.41-32C7.796 118.586 0 107.657 0 96V64C0 28.653 71.634 0 160 0c23.616 0 46.02 2.057 66.2 5.73C256.244-17.902 294.143-32 335.333-32 432.903-32 512 47.097 512 144.667s-79.096 176.666-176.667 176.666zM16 384c0 9.523 14.447 21.456 36.805 30.4C81.18 425.75 119.25 432 160 432s78.82-6.25 107.195-17.6C289.553 405.455 304 393.522 304 384s-14.447-21.456-36.805-30.4c-9.23-3.69-19.492-6.84-30.533-9.413C213.762 338.85 187.495 336 160 336s-53.763 2.85-76.663 8.187c-11.04 2.573-21.302 5.722-30.532 9.414C30.447 362.545 16 374.478 16 384zm0-192c0 7.067 7.96 15.46 21.203 22.975C66.553 200.935 110.666 192 160 192c1.71 0 3.406.023 5.102.047-4.188-15.08-6.436-30.967-6.436-47.38 0-.22.007-.438.008-.658-27.013.09-52.808 2.926-75.34 8.177-11.04 2.573-21.3 5.722-30.53 9.413C30.447 170.543 16 182.477 16 192zM160 48c-40.75 0-78.82 6.25-107.195 17.6C30.447 74.543 16 86.477 16 96c0 7.067 7.96 15.46 21.203 22.975C66.553 104.935 110.666 96 160 96c1.824 0 3.635.023 5.443.05 4.82-16.873 12.088-32.713 21.39-47.114C178.074 48.323 169.11 48 160 48zm0 192c-27.494 0-53.763 2.85-76.662 8.187-11.04 2.573-21.303 5.722-30.533 9.414C30.447 266.545 16 278.478 16 288c0 7.067 7.96 15.46 21.202 22.975C66.552 296.935 110.665 288 160 288c32.96 0 63.57 4 89.022 10.836-24.988-14.02-46.22-33.935-61.81-57.865-8.882-.63-17.97-.97-27.212-.97zM335.333.12c-79.83 0-144.545 64.716-144.545 144.547s64.715 144.545 144.545 144.545c79.83 0 144.546-64.715 144.546-144.545C479.88 64.837 415.163.12 335.332.12zM352 256h-32v-32h-64v-96h64V96h-64V64h64V32h32v32h64v96h-64v32h64v32h-64v32zm-32-96h-32v32h32v-32zm64-32V96h-32v32h32z"/><glyph unicode="" d="M464 416H48c-26.4 0-48-21.6-48-48V80c0-26.4 21.6-48 48-48h416c26.4 0 48 21.6 48 48v288c0 26.4-21.6 48-48 48zM48 384h416c8.673 0 16-7.327 16-16v-48H32v48c0 8.673 7.327 16 16 16zM464 64H48c-8.673 0-16 7.327-16 16v144h448V80c0-8.673-7.327-16-16-16zM64 160h32V96H64zm64 0h32V96h-32zm64 0h32V96h-32z"/><glyph unicode="" d="M256 480C114.615 480 0 365.385 0 224S114.615-32 256-32 512 82.615 512 224 397.385 480 256 480zm-96-256c0 53.02 42.98 96 96 96s96-42.98 96-96-42.98-96-96-96-96 42.98-96 96zm302.99-85.738l-88.71 36.745C380.54 190.1 384 206.645 384 224s-3.46 33.9-9.72 48.993l88.71 36.745C473.944 283.328 480 254.373 480 224s-6.057-59.327-17.01-85.738zM341.74 430.99l-36.746-88.71C289.902 348.54 273.356 352 256 352s-33.9-3.46-48.993-9.72l-36.745 88.71C196.672 441.944 225.628 448 256 448c30.373 0 59.327-6.057 85.74-17.01zM49.01 309.738l88.71-36.745C131.463 257.9 128 241.355 128 224s3.46-33.9 9.72-48.993l-88.71-36.745C38.057 164.672 32 193.627 32 224s6.057 59.327 17.01 85.738zM170.262 17.01l36.745 88.71C222.1 99.46 238.645 96 256 96s33.9 3.46 48.993 9.72l36.745-88.71C315.328 6.058 286.373 0 256 0s-59.327 6.057-85.738 17.01z"/><glyph unicode="" d="M325.608 214.818L512 86.264V382.21zM0 382.21V86.265l186.388 128.572zm256-229.9l-44.5 39.954L0 64h512L300.495 192.264zM496.64 384H15.36L256 203.074z"/><glyph unicode="" d="M288 205.255l54.627-54.628-45.254-45.254L224 178.745V288h64zM416 448c53.02 0 96-42.98 96-96 0-32.492-16.145-61.21-40.846-78.58-23.295 61.523-72.21 110.44-133.733 133.734C354.79 431.854 383.51 448 416 448zm-241.42-40.846C113.056 383.86 64.14 334.944 40.845 273.42 16.146 290.79 0 319.51 0 352c0 53.02 42.98 96 96 96 32.492 0 61.21-16.145 78.58-40.846zM256 384c-106.04 0-192-85.96-192-192 0-46.337 16.416-88.84 43.747-122.01L96-32h32l31.996 57.694C188.238 9.354 221.026 0 256 0c34.974 0 67.76 9.355 96.002 25.693L352 25.69 384-32h32L404.25 69.984C431.582 103.157 448 145.66 448 192c0 106.04-85.96 192-192 192zm0-320c-70.692 0-128 57.308-128 128s57.308 128 128 128 128-57.308 128-128S326.692 64 256 64z"/><glyph unicode="" d="M256 480C114.614 480 0 444.184 0 400v-64c0-44.183 114.61-80 256-80 141.385 0 256 35.817 256 80v64c0 44.184-114.615 80-256 80zm-.807-256C140.566 224 43.94 247.543 11.32 280 3.705 272.423 0 264.36 0 256v-64c0-44.184 114.61-80 256-80 141.385 0 256 35.816 256 80v64c0 8.36-4.516 16.423-12.13 24-32.62-32.457-130.05-56-244.677-56zm0-144C140.566 80 43.94 103.544 11.32 136 3.705 128.424 0 120.36 0 112V48C0 3.817 114.61-32 256-32c141.385 0 256 35.817 256 80v64c0 8.36-4.516 16.424-12.13 24-32.62-32.456-130.05-56-244.677-56z"/><glyph unicode="" d="M240 416c-25.333 0-49.79-3.975-72.693-11.814-21.462-7.347-40.557-17.718-56.75-30.823C80.533 349.068 64 317.963 64 285.776c0-17.995 5.033-35.474 14.96-51.95 10.343-17.17 25.95-32.896 45.13-45.478 15.22-9.984 25.468-25.976 28.18-43.975.452-2.995.816-6.003 1.09-9.016 1.362 1.26 2.713 2.557 4.058 3.897 12.07 12.02 28.344 18.656 45.16 18.656 2.675 0 5.36-.168 8.048-.51 9.68-1.225 19.562-1.847 29.374-1.847 25.333 0 49.79 3.974 72.692 11.814 21.463 7.346 40.558 17.717 56.752 30.822C399.467 222.483 416 253.59 416 285.775s-16.533 63.29-46.556 87.587c-16.194 13.106-35.29 23.476-56.752 30.823C289.79 412.026 265.332 416 240 416zm0 64c132.548 0 240-86.957 240-194.224S372.548 91.552 240 91.552c-12.73 0-25.223.81-37.417 2.355C151.03 42.56 91.497 33.353 32 32v12.567C64.126 60.244 90 88.8 90 121.434c0 4.553-.356 9.024-1.015 13.397C34.705 170.44 0 224.826 0 285.777 0 393.043 107.452 480 240 480zM498 44.657c0-27.97 18.157-52.45 46-65.886V-32c-51.563 1.16-98.893 9.05-143.57 53.063-10.57-1.325-21.398-2.02-32.43-2.02-47.735 0-91.704 12.88-126.807 34.52 72.337.253 140.63 23.427 192.417 65.336 26.104 21.125 46.697 45.912 61.207 73.673C510.2 222.006 518 253.363 518 285.776c0 5.224-.225 10.418-.63 15.584C553.657 271.393 576 230.55 576 185.522c0-52.244-30.08-98.86-77.12-129.382-.57-3.748-.88-7.58-.88-11.483z" horiz-adv-x="576"/><glyph unicode="" d="M256 480C114.615 480 0 386.875 0 272c0-65.275 37.02-123.52 94.918-161.652C95.62 105.665 96 100.878 96 96c0-34.948-29.732-65.53-64-82.318V.224c63.463 1.448 129.1 11.31 184.088 66.3C229.095 64.866 242.422 64 256 64c141.385 0 256 93.124 256 208S397.385 480 256 480zm32-320h-64v64h64v-64zm0 128h-64v128h64V288z"/><glyph unicode="" d="M311.413 128.632c-11.055 1.76-11.307 32.157-11.307 32.157s32.484 32.157 39.564 75.4c19.045 0 30.81 45.973 11.76 62.148C352.227 315.365 375.91 432 256 432s-96.225-116.635-95.432-133.662c-19.047-16.175-7.285-62.148 11.76-62.148 7.08-43.243 39.565-75.4 39.565-75.4s-.252-30.4-11.307-32.158C164.976 122.966 32 64.315 32 0h448c0 64.315-132.976 122.966-168.587 128.632z"/><glyph unicode="" d="M218 112c0-28.688 6.68-55.84 18.555-80H0v57.257c41.682 38.573 112.118 67.48 136.586 71.375 11.055 1.76 11.307 32.157 11.307 32.157s-32.485 32.157-39.564 75.4c-19.047 0-30.81 45.973-11.762 62.148C95.775 347.365 72.088 464 192 464s96.227-116.635 95.43-133.662c19.048-16.175 7.284-62.148-11.76-62.148-2.132-13.017-6.572-25.017-11.728-35.45-10.216-11.5-19.007-24.29-26.077-38.106-1.11-1.197-1.76-1.845-1.76-1.845s.005-.598.043-1.605C224.526 167.23 218 140.365 218 112zm182 144c-79.53 0-144-64.47-144-144S320.47-32 400-32s144 64.47 144 144-64.47 144-144 144zm80-160h-64V32h-32v64h-64v32h64v64h32v-64h64V96z" horiz-adv-x="544"/><glyph unicode="" d="M400 256c-79.53 0-144-64.47-144-144S320.47-32 400-32s144 64.47 144 144-64.47 144-144 144zm80-90.87L426.87 112 480 58.87V32h-26.87L400 85.13 346.87 32H320v26.87L373.13 112 320 165.13V192h26.87L400 138.87 453.13 192H480v-26.87zM218 112c0-28.688 6.68-55.84 18.555-80H0v57.257c41.682 38.573 112.118 67.48 136.586 71.375 11.055 1.76 11.307 32.157 11.307 32.157s-32.485 32.157-39.564 75.4c-19.047 0-30.81 45.973-11.762 62.148C95.775 347.365 72.088 464 192 464s96.227-116.635 95.43-133.662c19.048-16.175 7.284-62.148-11.76-62.148-2.132-13.017-6.572-25.017-11.728-35.45-10.216-11.5-19.007-24.29-26.077-38.106-1.11-1.197-1.76-1.845-1.76-1.845s.005-.598.043-1.605C224.526 167.23 218 140.365 218 112z" horiz-adv-x="544"/><glyph unicode="" d="M160 384c0 53.02 42.98 96 96 96s96-42.98 96-96-42.98-96-96-96-96 42.98-96 96zm224.04-128h-17.713L266.775 53.878 304 240l-48 48-48-48 37.225-186.122L145.675 256H127.96C64 256 64 213.007 64 160V0h384v160c0 53.007 0 96-63.96 96z"/><glyph unicode="" d="M512 288H320l71.765 71.765C355.5 396.028 307.285 416 256 416s-99.5-19.972-135.765-56.235C83.972 323.5 64 275.285 64 224s19.972-99.5 56.235-135.765C156.5 51.972 204.715 32 256 32s99.5 19.972 135.764 56.236c3.028 3.027 5.93 6.146 8.728 9.334l48.16-42.14C401.73 1.845 332.82-32 256-32 114.615-32 0 82.615 0 224s114.615 256 256 256c70.693 0 134.684-28.663 181.008-74.992L512 480V288z"/><glyph unicode="" d="M352 480c-88.365 0-160-71.634-160-160 0-10.013.93-19.808 2.688-29.312L0 96V0c0-17.673 14.327-32 32-32h32V0h64v64h64v64h64l41.52 41.52c17.006-6.157 35.35-9.52 54.48-9.52 88.365 0 160 71.634 160 160s-71.635 160-160 160zm47.937-160.063c-26.51 0-48 21.49-48 48s21.49 48 48 48 48-21.49 48-48-21.49-48-48-48z"/><glyph unicode="" d="M296 256h-8v96c0 52.935-43.065 96-96 96h-64c-52.935 0-96-43.065-96-96v-96h-8c-13.2 0-24-10.8-24-24V-8c0-13.2 10.8-24 24-24h272c13.2 0 24 10.8 24 24v240c0 13.2-10.8 24-24 24zM192 32h-64l13.92 69.6C133.516 107.366 128 117.037 128 128c0 17.673 14.327 32 32 32s32-14.327 32-32c0-10.963-5.516-20.634-13.92-26.4L192 32zm32 224H96v96c0 17.645 14.355 32 32 32h64c17.645 0 32-14.355 32-32v-96z"/><glyph unicode="" d="M480.895 114.14L294.502 266.25c-6.183 5.045-12.183 9.55-17.906 13.495C283.936 297.03 288 316.04 288 336c0 79.53-64.47 144-144 144-14.547 0-28.586-2.166-41.823-6.177L192 384v-96H96L6.177 377.823C2.167 364.586 0 350.547 0 336c0-79.53 64.47-144 144-144 19.96 0 38.97 4.063 56.252 11.404 3.944-5.724 8.45-11.724 13.494-17.906L365.86-.896c31.645-38.776 86.336-41.702 121.536-6.502s32.275 89.892-6.5 121.537zM432 0l-48 48 48 48 48-48-48-48z"/><glyph unicode="" d="M512 256l-120.543 24.108 68.19 102.284-45.256 45.255-102.282-68.19L288 480h-64l-24.108-120.542-102.284 68.19-45.255-45.256 68.19-102.284L0 256v-64l120.542-24.108-68.19-102.284L97.61 20.353l102.284 68.19L224-32h64l24.108 120.542L414.39 20.354l45.256 45.255-68.188 102.282L512 192v64zm-160 7.764v-79.528L295.764 128h-79.528L160 184.236v79.528L216.235 320h79.528L352 263.764zM224 256h64v-64h-64z"/><glyph unicode="" d="M496 0H384v16h-16V0H208v16h-16V0H80v16H64V0H32v144h16v16H32v112h16v16H32v112h16v16H32v64H0V-32h512v48h-16zM220 284l-8-8V149.94l8 8zm-16-16l-8-8V133.94l8 8zm-16-142.06V258l-8 4V128.833l7.26-3.63zM268 332l-8-8V197.94l8 8zm-32-32l-8-8V165.94l8 8zm-64-34l-8 4V136.833l8-4zm80 50l-8-8V181.94l8 8zm-128-26l-8 4V160.833l8-4zm-32 16l-8 4V176.833l8-4zm64-32l-8 4V144.833l8-4zm-48 24l-8 4V168.833l8-4zm-32 16l-8 4V184.833l8-4zm208 34l-8-8V213.94l8 8zm-144-66l-8 4V152.833l8-4zm272 34l-8-8V137.267l8 12zm16 16l-8-8V161.267l8 12zm16 16l-8-8V185.267l8 12zm32 32l-8-8V233.267l8 12zm-16-16l-8-8V209.267l8 12zm48 48l-8-8V281.267l8 12zm-16-16l-8-8V257.267l8 12zm-144-84l-8 5.333V162.666L348 152zm-16 10.667L324 328V184l8-10.667zM300 344l-8 5.333V226.667L300 216zm16-10.667l-8 5.334V205.333l8-10.667zm48-32l-8 5.334V141.333l8-10.667zM396 300l-8-8V113.268l8 12zm-16-9.333L372 296V120l8-10.667zM384 64l-96 128-96-96-128 64V32h448v224z"/><glyph unicode="" d="M502.156 247.867l-54.194 54.194c-41.73 41.763 11.69 38.425 42.707 66.246l.462.422c.72.657 1.43 1.325 2.123 2.018 24.993 24.994 24.993 65.515 0 90.51-24.994 24.993-65.516 24.993-90.51 0-.693-.693-1.36-1.404-2.02-2.123l-.42-.462c-27.827-31.02-24.48-84.46-66.272-42.68l-54.166 54.165c-13.126 13.127-34.605 13.127-47.733 0l-54.14-54.14-.016-.015c-41.805-41.804-38.454 11.644-66.283 42.67l-.422.462c-.658.72-1.326 1.43-2.02 2.123-24.992 24.993-65.514 24.993-90.51 0-24.992-24.994-24.992-65.516 0-90.51.693-.693 1.404-1.36 2.124-2.02l.462-.42c31.025-27.83 84.472-24.48 42.67-66.284-.006-.004-.01-.01-.015-.014l-54.14-54.14c-13.127-13.127-13.127-34.607 0-47.734l54.15-54.15.003-.004c41.804-41.805-11.644-38.454-42.67-66.283l-.462-.422c-.72-.658-1.43-1.326-2.123-2.02-24.993-24.992-24.993-65.514 0-90.51 24.994-24.992 65.516-24.992 90.51 0 .693.693 1.36 1.404 2.02 2.124l.42.462c27.827 31.022 24.48 84.46 66.27 42.682l54.17-54.17c13.127-13.124 34.607-13.124 47.733 0l62.917 62.918c25.066 32.225-22.422 31.452-50.955 57.045-.154.14-.31.28-.462.422-.72.657-1.43 1.325-2.123 2.02-24.993 24.993-24.993 65.515 0 90.51 24.995 24.992 65.517 24.992 90.51 0 .692-.694 1.36-1.405 2.02-2.124l.42-.463c25.594-28.532 24.82-76.02 57.046-50.954l62.916 62.917c13.126 13.127 13.126 34.607 0 47.734z"/><glyph unicode="" d="M256 480C114.844 480 0 365.162 0 224S114.844-32 256-32c141.155 0 256 114.838 256 256S397.156 480 256 480zm0-455.11C146.21 24.89 56.89 114.21 56.89 224c0 109.79 89.322 199.11 199.11 199.11S455.11 333.79 455.11 224C455.113 114.21 365.788 24.89 256 24.89zm0 341.333c-78.422 0-142.224-63.8-142.224-142.224 0-78.422 63.8-142.225 142.224-142.225S398.223 145.578 398.223 224c0 78.422-63.8 142.223-142.223 142.223zm0-227.557c-47.058 0-85.334 38.277-85.334 85.333 0 47.057 38.276 85.334 85.334 85.334 47.056 0 85.335-38.277 85.335-85.335 0-47.057-38.28-85.334-85.335-85.334zM224 224c0 17.673 14.327 32 32 32s32-14.327 32-32c0-17.673-14.327-32-32-32s-32 14.327-32 32z"/><glyph unicode="" d="M0 480h128V352H0zm192-32h320v-64H192zM0 288h128V160H0zm192-32h320v-64H192zM0 96h128V-32H0zm192-32h320V0H192z"/><glyph unicode="" d="M445.502 299.97c-1.62 64.35-54.23 116.03-118.93 116.03-37.897 0-71.634-17.747-93.428-45.366-12.22 15.8-31.345 25.98-52.854 25.98-36.905 0-66.82-29.937-66.82-66.86 0-3.22.24-6.38.68-9.478-5.61 1.012-11.382 1.57-17.284 1.57C43.366 321.845 0 278.45 0 224.923 0 171.394 43.367 128 96.865 128h49.88L256 18.745 365.255 128l59.74.006c48.07.092 87.005 39.106 87.005 87.223 0 41.044-28.34 75.45-66.498 84.74zM256 64l-96 96h64v96h64v-96h64l-96-96z"/><glyph unicode="" d="M446.134 286.755C447.356 292.31 448 298.08 448 304c0 44.183-35.817 80-80 80-7.11 0-14.007-.934-20.566-2.676C335.034 420 298.79 448 256 448c-43.674 0-80.527-29.168-92.163-69.085C152.467 382.225 140.44 384 128 384 57.308 384 0 326.692 0 256c0-70.694 57.308-128 128-128h64V32h128v96h112c44.183 0 80 35.816 80 80 0 39.36-28.427 72.08-65.866 78.755zM288 160V64h-64v96h-80l112 112 112-112h-80z"/><glyph unicode="" d="M240 448C107.452 448 0 340.548 0 208S107.452-32 240-32c132.55 0 240 107.45 240 240S372.55 448 240 448zm135.795-320c4.29 20.227 6.998 41.695 7.88 64h63.723c-1.67-22.098-6.812-43.557-15.34-64h-56.263zm-32.777 160c4.808-20.48 7.7-41.927 8.64-64H256v64h87.018zM256 320v93.67c7.295-2.124 14.52-5.686 21.614-10.686 13.29-9.37 26.006-23.804 36.77-41.743 7.44-12.4 13.876-26.207 19.248-41.24H256zm-90.384 41.242c10.764 17.94 23.478 32.374 36.77 41.743 7.09 5 14.32 8.562 21.614 10.685V320h-77.632c5.373 15.033 11.808 28.84 19.248 41.242zM224 288v-64h-95.657c.94 22.073 3.833 43.52 8.64 64H224zm-95.657-96H224v-64h-87.018c-4.806 20.48-7.7 41.927-8.64 64zM224 96V2.33c-7.294 2.123-14.522 5.686-21.614 10.685-13.292 9.37-26.007 23.806-36.77 41.743-7.44 12.402-13.875 26.21-19.25 41.242H224zm90.384-41.242c-10.764-17.938-23.48-32.373-36.77-41.743-7.093-5-14.32-8.562-21.614-10.685V96h77.633c-5.373-15.033-11.808-28.84-19.25-41.242zM256 128v64h95.657c-.94-22.073-3.833-43.52-8.64-64H256zm127.674 96c-.88 22.304-3.59 43.773-7.88 64h56.263c8.528-20.443 13.672-41.903 15.34-64h-63.723zm31.655 96h-47.95c-9.32 29.38-22.19 55.147-37.66 75.714 21.27-10.17 40.53-23.808 57.358-40.636 10.74-10.74 20.18-22.47 28.25-35.078zM387.077 60.922c-16.828-16.83-36.09-30.467-57.357-40.637C345.194 40.85 358.06 66.62 367.38 96h47.95c-8.07-12.61-17.512-24.34-28.252-35.078z"/><glyph unicode="" d="M160 128c8.8-8.8 23.637-8.363 32.97.97l158.06 158.06c9.334 9.333 9.77 24.17.97 32.97s-23.637 8.363-32.97-.97L160.97 160.97c-9.333-9.333-9.77-24.17-.97-32.97zm78.444 14.444c2.28-4.525 3.495-9.58 3.495-14.848 0-8.808-3.373-17.03-9.497-23.154l-81.69-81.69c-6.125-6.125-14.348-9.497-23.155-9.497s-17.03 3.372-23.154 9.496l-49.69 49.692c-6.125 6.124-9.497 14.347-9.497 23.154s3.372 17.03 9.496 23.154l81.69 81.69c6.125 6.125 14.348 9.498 23.155 9.498 5.268 0 10.322-1.215 14.848-3.495l32.67 32.67c-13.936 10.704-30.72 16.08-47.518 16.08-19.993 0-39.986-7.584-55.154-22.752l-81.69-81.69c-30.336-30.335-30.336-79.974 0-110.31l49.69-49.69C87.61-24.416 107.604-32 127.597-32c19.994 0 39.987 7.584 55.154 22.75l81.692 81.692c27.91 27.91 30.12 72.15 6.672 102.672l-32.67-32.67zM489.25 407.558l-49.692 49.69C424.39 472.42 404.398 480 384.404 480c-19.993 0-39.986-7.583-55.154-22.75l-81.69-81.692c-27.91-27.91-30.12-72.15-6.672-102.67l32.67 32.67c-2.28 4.524-3.495 9.58-3.495 14.846 0 8.808 3.372 17.03 9.496 23.154l81.69 81.69c6.124 6.125 14.347 9.498 23.154 9.498s17.03-3.373 23.154-9.497l49.69-49.692c6.125-6.124 9.497-14.347 9.497-23.154s-3.372-17.03-9.496-23.154l-81.692-81.69c-6.124-6.125-14.347-9.497-23.154-9.497-5.268 0-10.322 1.215-14.848 3.495l-32.67-32.67c13.937-10.704 30.72-16.08 47.518-16.08 19.994 0 39.987 7.585 55.154 22.752l81.69 81.69c30.336 30.334 30.336 79.973 0 110.308z"/><glyph unicode="" d="M96 480V-32l160 160L416-32v512z"/><glyph unicode="" d="M512 281.475L335.11 307.18 256 467.47l-79.108-160.29L0 281.474l128-124.77L97.784-19.47 256 63.71l158.216-83.18L384 156.706l128 124.77z"/><glyph unicode="" d="M256 480C114.615 480 0 365.385 0 224S114.613-32 256-32c141.385 0 256 114.615 256 256S397.385 480 256 480zm32-416h-64v64h64V64zm96 192c0-35.29-28.71-64-64-64h-31.942c-.02-.017-.04-.038-.058-.058V160h-64v32c0 35.29 28.71 64 64 64h31.942c.02.017.04.038.058.057v63.885c-.017.02-.037.04-.058.058H160v64h160c35.29 0 64-28.71 64-64v-64z"/><glyph unicode="" d="M256 480C114.615 480 0 365.385 0 224S114.615-32 256-32 512 82.615 512 224 397.385 480 256 480zm32-288V64h-64v128H96v64h128v128h64V256h128v-64H288z"/><glyph unicode="" d="M256 480C114.615 480 0 365.385 0 224S114.615-32 256-32 512 82.615 512 224 397.385 480 256 480zm128-173.255L301.256 224 384 141.256V96h-45.256L256 178.744 173.255 96H128v45.256L210.745 224 128 306.745V352h45.255L256 269.255 338.744 352H384v-45.255z"/><glyph unicode="" d="M256 480C114.615 480 0 365.385 0 224S114.615-32 256-32 512 82.615 512 224 397.385 480 256 480zM208 64L102 202l47 49 59-75 185 151 23-23L208 64z"/><glyph unicode="" d="M491.53 448C324.28 321.417 163.877 152.1 163.877 152.1L48.288 256 0 206.81C47.508 162.16 157.58 44.213 194.816 0 299.61 175.09 408.556 305.668 512 425.077L491.53 448z"/><glyph unicode="" d="M496 288H320v176c0 8.836-7.164 16-16 16h-96c-8.836 0-16-7.164-16-16V288H16c-8.836 0-16-7.164-16-16v-96c0-8.836 7.164-16 16-16h176V-16c0-8.836 7.164-16 16-16h96c8.836 0 16 7.164 16 16v176h176c8.836 0 16 7.164 16 16v96c0 8.836-7.164 16-16 16z"/><glyph unicode="" d="M192 224H32v64h160v64l96-96-96-96zm320 256V64L320-32v96H128v128h32V96h160v288l128 64H160V320h-32v160z"/><glyph unicode="" d="M384 160v64H224v64h160v64l96-96zm-32 32V64H192v-96L0 64v416h352V320h-32v128H64l128-64V96h128v96z"/><glyph unicode="" d="M512 96L256 352 0 96l256 128z"/><glyph unicode="" d="M128-32l256 256-256 256 128-256z"/><glyph unicode="" d="M0 352L256 96l256 256-256-128z"/><glyph unicode="" d="M384 480L128 224 384-32 256 224z"/><glyph unicode="" d="M128 160s29.412 96 192 96v-96l192 128-192 128v-96c-128 0-192-79.836-192-160zm224-64H64v192h62.938c5.047 5.96 10.456 11.667 16.244 17.09 21.982 20.595 48.28 36.326 78.057 46.91H0V32h416v134.312l-64-42.667V96z"/><glyph unicode="" d="M0 448V0h512v448H0zM480 32H32v384h448V32zm-32 352H64V64h384v320zM224 224h-32v-32h-32v-32h-32v32h32v32h32v32h-32v32h-32v32h32v-32h32v-32h32v-32zm128-64h-96v32h96v-32z"/><glyph unicode="" d="M287.935-32H192v256h-64v88.225l64 .03-.104 51.975c0 71.976 19.517 115.77 104.3 115.77h70.587v-88.242h-44.115c-33.016 0-34.603-12.328-34.603-35.342l-.13-44.162h79.344l-9.353-88.225L288 224l-.065-256z"/><glyph unicode="" d="M512 382.79c-18.838-8.353-39.082-14-60.33-16.54 21.686 13 38.343 33.586 46.186 58.116-20.298-12.04-42.778-20.78-66.705-25.49-19.16 20.415-46.46 33.17-76.672 33.17-58.01 0-105.044-47.03-105.044-105.04 0-8.232.93-16.25 2.72-23.938-87.3 4.382-164.7 46.2-216.51 109.753-9.04-15.513-14.222-33.557-14.222-52.808 0-36.444 18.544-68.596 46.73-87.433-17.22.545-33.416 5.27-47.577 13.138-.01-.438-.01-.878-.01-1.32 0-50.895 36.21-93.35 84.26-103-8.812-2.4-18.093-3.687-27.673-3.687-6.77 0-13.35.66-19.764 1.887 13.368-41.73 52.16-72.103 98.126-72.948C119.564 78.473 74.27 61.68 25.056 61.68c-8.48 0-16.84.497-25.058 1.47 46.486-29.805 101.7-47.197 161.02-47.197 193.212 0 298.87 160.062 298.87 298.872 0 4.554-.104 9.084-.306 13.59 20.528 14.81 38.336 33.31 52.418 54.374z"/><glyph unicode="" d="M345.11 244.16c-30.334 14.325-68.986 17.21-97.417-3.025 34.57 3.302 72.48-2.42 97.553-28.562 24 27.54 62.057 32.703 96.48 29.866-28.745 19.07-66.61 16.51-96.616 1.72zm-12.286-67.035c-34.19.79-67.217-11.586-95.55-30.052-53.588 22.794-121.368 18.562-167-19.49 13.164.466 26.002 3.722 39.027 5.395 47.592 4.744 98.295-7.07 134.257-39.912 14.886 21.77 35.822 39.12 59.826 49.96 31.537 15.26 67.08 16.843 101.41 17.26-20.844 14.325-47.308 16.978-71.97 16.84zm118.892 203.16l-71.432 71.43C364.728 467.273 334 480 312 480H72c-22 0-40-18-40-40V8c0-22 18-40 40-40h368c22 0 40 18 40 40v304c0 22-12.728 52.73-28.284 68.285zm-22.627-22.628c1.564-1.565 3.124-3.487 4.64-5.657H352v81.728c2.17-1.515 4.092-3.075 5.657-4.64l71.432-71.43zM448 8c0-4.336-3.664-8-8-8H72c-4.336 0-8 3.664-8 8v432c0 4.336 3.664 8 8 8h240c2.416 0 5.127-.305 8-.852V320h127.148c.547-2.873.852-5.583.852-8V8z"/><glyph unicode="" d="M319.89 242.054h22.105l-25.506-113.09-33.164 159.006H230.05l-38.556-159.005-28.908 159.005H106.89l56.545-255.94h54.42L256 183.382 290.13 32.03h50.167l64.815 255.94H319.89zm131.826 138.23l-71.432 71.432C364.728 467.272 334 480 312 480H72c-22 0-40-18-40-40V8c0-22 18-40 40-40h368c22 0 40 18 40 40v304c0 22-12.728 52.73-28.284 68.285zm-22.627-22.627c1.564-1.565 3.124-3.487 4.64-5.657H352v81.728c2.17-1.515 4.092-3.075 5.657-4.64l71.432-71.43zM448 8c0-4.336-3.664-8-8-8H72c-4.336 0-8 3.664-8 8v432c0 4.336 3.664 8 8 8h240c2.416 0 5.127-.305 8-.852V320h127.148c.547-2.873.852-5.583.852-8V8z"/><glyph unicode="" d="M371.514 288h-67.647L256 217.484 208.13 288h-67.643l81.08-121.232L130.082 32H261.2v45.788h-30.277L256 115.285 311.7 32h70.22l-91.488 134.768zm80.202 92.285l-71.432 71.43C364.728 467.273 334 480 312 480H72c-22 0-40-18-40-40V8c0-22 18-40 40-40h368c22 0 40 18 40 40v304c0 22-12.728 52.73-28.284 68.285zm-22.627-22.628c1.564-1.565 3.124-3.487 4.64-5.657H352v81.728c2.17-1.515 4.092-3.075 5.657-4.64l71.432-71.43zM448 8c0-4.336-3.664-8-8-8H72c-4.336 0-8 3.664-8 8v432c0 4.336 3.664 8 8 8h240c2.416 0 5.127-.305 8-.852V320h127.148c.547-2.873.852-5.583.852-8V8z"/><glyph unicode="" d="M208 416h48v-32h-48zm-48-32h48v-32h-48zm48-32h48v-32h-48zm-48-32h48v-32h-48zm48-32h48v-32h-48zm-48-32h48v-32h-48zm48-32v-32h-48V80c0-8.837 7.163-16 16-16h64c8.837 0 16 7.163 16 16v144h-48zm32-128h-64v32h64V96zm211.716 284.285l-71.432 71.43C364.728 467.273 334 480 312 480H72c-22 0-40-18-40-40V8c0-22 18-40 40-40h368c22 0 40 18 40 40v304c0 22-12.728 52.73-28.284 68.285zm-22.627-22.628c1.564-1.565 3.124-3.487 4.64-5.657H352v81.728c2.17-1.515 4.092-3.075 5.657-4.64l71.432-71.43zM448 8c0-4.336-3.664-8-8-8H72c-4.336 0-8 3.664-8 8v432c0 4.336 3.664 8 8 8h240c2.416 0 5.127-.305 8-.852V320h127.148c.547-2.873.852-5.583.852-8V8z"/><glyph unicode="" d="M96 224h96v-32H96v32zm0-64h96v-32H96v32zm0-64h96V64H96v32zm355.716 284.285l-71.432 71.43C364.728 467.273 334 480 312 480H72c-22 0-40-18-40-40V8c0-22 18-40 40-40h368c22 0 40 18 40 40v304c0 22-12.728 52.73-28.284 68.285zm-22.627-22.628c1.564-1.565 3.124-3.487 4.64-5.657H352v81.728c2.17-1.515 4.092-3.075 5.657-4.64l71.432-71.43zM448 8c0-4.336-3.664-8-8-8H72c-4.336 0-8 3.664-8 8v432c0 4.336 3.664 8 8 8h240c2.416 0 5.127-.305 8-.852V320h127.148c.547-2.873.852-5.583.852-8V8zM288 128h94.396C374.983 91.484 342.703 64 304 64c-44.183 0-80 35.817-80 80 0 38.703 27.485 70.983 64 78.396V128zm48 128c44.183 0 80-35.817 80-80 0-5.48-.554-10.83-1.604-16H320v94.396c5.17 1.05 10.52 1.604 16 1.604z"/><glyph unicode="" d="M224 192l-32 32-96-96 96-96 32 32-64 64zm64-128l32-32 96 96-96 96-32-32 64-64zm163.716 316.285l-71.432 71.43C364.728 467.273 334 480 312 480H72c-22 0-40-18-40-40V8c0-22 18-40 40-40h368c22 0 40 18 40 40v304c0 22-12.728 52.73-28.284 68.285zm-22.627-22.628c1.564-1.565 3.124-3.487 4.64-5.657H352v81.728c2.17-1.515 4.092-3.075 5.657-4.64l71.432-71.43zM448 8c0-4.336-3.664-8-8-8H72c-4.336 0-8 3.664-8 8v432c0 4.336 3.664 8 8 8h240c2.416 0 5.127-.305 8-.852V320h127.148c.547-2.873.852-5.583.852-8V8z"/><glyph unicode="" d="M373.333 368c0-14.72 11.947-26.667 26.667-26.667S426.667 353.28 426.667 368 414.72 394.667 400 394.667 373.333 382.72 373.333 368zm0-170.667c0-14.72 11.947-26.667 26.667-26.667s26.667 11.947 26.667 26.667S414.72 224 400 224s-26.667-11.947-26.667-26.667zM0 128c0-23.573 19.093-42.667 42.667-42.667H224v-29.44c-5.227-3.52-9.707-8-13.227-13.227H80C65.28 42.667 53.333 30.72 53.333 16S65.28-10.667 80-10.667h130.773C219.413-23.574 234.026-32 250.666-32s31.253 8.427 39.893 21.333H432c14.72 0 26.667 11.947 26.667 26.667S446.72 42.667 432 42.667H290.56c-3.52 5.227-8 9.707-13.227 13.227v29.44h192C492.906 85.333 512 104.425 512 128v309.333C512 460.906 492.907 480 469.333 480H42.667C19.093 480 0 460.907 0 437.333V128zm76.8 298.667h358.4c13.013 0 23.467-10.454 23.467-23.467v-70.4c0-13.013-10.453-23.467-23.467-23.467H76.8c-13.013 0-23.467 10.454-23.467 23.467v70.4c0 13.013 10.454 23.467 23.467 23.467zM76.8 256h358.4c13.013 0 23.467-10.453 23.467-23.467v-70.4c0-13.013-10.453-23.467-23.467-23.467H76.8c-13.013 0-23.467 10.454-23.467 23.467v70.4C53.333 245.547 63.787 256 76.8 256z"/><glyph unicode="" d="M440.91 306.457c-40.526 94.336-105.78 166.17-138.78 152.73-56.037-22.784 33.41-132.198-241.816-244.07-23.782-9.652-29.8-48.334-19.84-71.45 9.933-23.118 42.445-46.132 66.227-36.48 4.097 1.663 19.226 6.527 19.226 6.527 16.973-22.784 34.74-9.267 41.063-23.757 7.576-17.408 24.037-55.22 29.618-68.07 5.632-12.85 18.33-24.78 27.546-21.274C233.32 4.12 264.627 16.05 276.61 20.58s14.847 15.233 11.186 23.655c-3.942 9.063-20.122 11.725-24.73 22.323-4.633 10.6-19.71 44.52-24.037 55.22-5.89 14.54 6.63 26.367 24.83 28.26 125.287 13.057 148.712-64.332 191.36-46.975 32.922 13.466 26.215 109.056-14.31 203.392zm-14.107-153.01c-7.322-2.97-56.627 35.89-88.14 109.234-31.49 73.32-27.52 140.34-20.225 143.31 7.322 2.995 55.424-43.93 86.938-117.248 31.462-73.293 28.75-132.327 21.427-135.296z"/><glyph unicode="" d="M416 352h-96v32l-96 96H0V96h192V-32h320v288l-96 96zm0-45.255L466.745 256H416v50.745zm-192 128L274.745 384H224v50.745zM32 448h160v-96h96V128H32v320zM480 0H224v96h96v224h64v-96h96V0z"/><glyph unicode="" d="M438.857 91.43V54.856q0-7.428-5.428-12.857t-12.858-5.428H18.286q-7.428 0-12.857 5.428T0 54.857V91.43q0 7.427 5.43 12.856t12.856 5.428h402.286q7.428 0 12.857-5.428t5.427-12.857zm0 146.284v-36.572q0-7.428-5.428-12.857t-12.858-5.428H18.286q-7.428 0-12.857 5.428T0 201.142v36.572q0 7.428 5.43 12.857T18.285 256h402.286q7.428 0 12.857-5.428t5.427-12.857zm0 146.286v-36.572q0-7.428-5.428-12.857t-12.858-5.427H18.286q-7.428 0-12.857 5.428T0 347.43V384q0 7.428 5.43 12.857t12.856 5.428h402.286q7.428 0 12.857-5.428T438.856 384z"/></font>
</defs>
</svg>
